# xmcd CD database file
#
# Track frame offsets:
#	150
#	16400
#	34312
#	53000
#	70437
#	80662
#	98512
#	114075
#	129187
#	144412
#	160525
#	178912
#	193675
#
# Disc length: 2799 seconds
#
# Revision: 3
# Processed by: cddbd v1.4PL0 Copyright (c) Steve Scherf et al.
# Submitted via: CDex 1.50Beta3
#
DISCID=a40aed0d
DTITLE=Barbara Clear - Wings of Fantasy
DYEAR=1994
DGENRE=Vocal
TTITLE0=Wings of Fantasy
TTITLE1=Delta Dreamland
TTITLE2=I am a Bird
TTITLE3=Ladies
TTITLE4=Taxi Driver
TTITLE5=Faraway Eyes
TTITLE6=Feelin´ Crazy
TTITLE7=Don´t touch me with Diamonds
TTITLE8=It´s not Enough
TTITLE9=She´s not There
TTITLE10=Life is too short
TTITLE11=Turn the Night into Day
TTITLE12=Lovers
EXTD=YEAR: 1994
EXTT0=
EXTT1=
EXTT2=
EXTT3=
EXTT4=
EXTT5=
EXTT6=
EXTT7=
EXTT8=
EXTT9=
EXTT10=
EXTT11=
EXTT12=
PLAYORDER=
